<?xml version="1.0" standalone="no"?>
<!DOCTYPE svg PUBLIC "-//W3C//DTD SVG 20010904//EN"
 "http://www.w3.org/TR/2001/REC-SVG-20010904/DTD/svg10.dtd">
<svg version="1.0" xmlns="http://www.w3.org/2000/svg"
 width="300.000000pt" height="266.000000pt" viewBox="0 0 300.000000 266.000000"
 preserveAspectRatio="xMidYMid meet">
<metadata>
Created by potrace 1.10, written by Peter Selinger 2001-2011
</metadata>
<g transform="translate(0.000000,266.000000) scale(0.100000,-0.100000)"
fill="#000000" stroke="none">
<path d="M1290 2625 c-17 -9 -44 -12 -87 -8 -110 10 -274 -29 -333 -79 -81
-68 -57 -178 38 -178 50 0 92 31 92 68 l0 27 -20 -33 c-56 -92 -165 -38 -114
57 25 47 94 88 179 106 65 14 195 21 195 11 0 -3 -21 -33 -47 -68 -27 -35 -70
-106 -98 -158 -60 -114 -123 -183 -183 -201 -54 -16 -92 -1 -92 35 0 31 30 49
66 40 19 -5 25 -4 20 5 -12 19 -84 13 -106 -9 -59 -59 26 -118 129 -90 45 12
129 81 158 131 14 23 24 27 83 32 37 3 88 15 113 27 74 35 137 106 137 155 0
23 -53 77 -93 95 -35 16 -37 19 -21 28 11 6 17 13 14 15 -3 3 -16 -1 -30 -8z
m48 -62 c30 -19 46 -55 38 -88 -11 -43 -73 -102 -129 -123 -64 -24 -130 -36
-126 -24 2 5 38 66 78 135 80 136 81 137 139 100z"/>
<path d="M1692 2518 c-5 -7 -26 -45 -46 -85 -29 -59 -39 -70 -56 -66 -50 13
-103 -24 -142 -102 -28 -56 -57 -85 -85 -85 -27 0 -38 20 -29 55 5 18 13 25
30 25 34 0 88 53 84 82 -2 16 -11 24 -29 26 -73 9 -153 -144 -101 -191 26 -24
56 -21 91 9 24 20 31 22 31 10 0 -14 28 -36 45 -36 4 0 20 14 36 31 26 28 29
29 29 11 0 -44 55 -45 87 -3 11 14 12 14 13 -1 0 -21 33 -40 54 -32 8 3 23 18
32 32 l18 27 6 -24 c9 -37 35 -49 67 -31 14 8 29 22 31 30 4 12 1 11 -15 -2
-34 -31 -53 -23 -53 20 0 31 9 50 48 98 80 100 120 214 76 214 -33 0 -72 -62
-124 -197 -46 -120 -93 -179 -115 -143 -3 5 8 41 25 81 36 84 36 89 10 89 -12
0 -20 -7 -20 -17 0 -26 -44 -114 -69 -140 -28 -29 -41 -29 -41 1 0 23 104 236
141 287 10 15 19 30 19 33 0 11 -38 6 -48 -6z m228 -29 c0 -19 -70 -146 -91
-165 -19 -17 -19 -17 -3 22 42 103 94 181 94 143z m-490 -149 c0 -23 -45 -70
-66 -70 -22 0 -16 16 20 54 38 41 46 44 46 16z m170 7 c0 -17 -55 -105 -88
-139 -46 -50 -59 -3 -17 68 36 61 105 108 105 71z"/>
<path d="M1713 2414 c-9 -23 13 -40 32 -24 8 7 15 19 15 26 0 19 -39 18 -47
-2z"/>
<path d="M1937 2416 c-7 -18 11 -36 29 -29 8 3 14 14 14 24 0 22 -35 26 -43 5z"/>
<path d="M2046 2349 c-15 -11 -36 -40 -47 -62 -30 -59 -68 -107 -85 -107 -22
0 -17 31 16 105 17 37 30 69 30 71 0 2 -10 4 -23 4 -16 0 -23 -6 -24 -22 -1
-11 -13 -44 -27 -71 -19 -40 -22 -54 -14 -73 20 -42 60 -39 92 8 12 16 16 18
16 7 0 -29 33 -47 83 -47 45 1 50 4 79 45 16 25 27 47 24 50 -3 4 1 17 9 30 8
13 22 34 31 48 16 24 15 25 -5 25 -15 0 -28 -16 -52 -62 -38 -77 -75 -118
-106 -118 -27 0 -38 20 -29 55 5 19 13 25 32 25 34 0 84 51 84 84 0 22 -5 26
-29 26 -15 0 -40 -9 -55 -21z m63 -22 c-13 -26 -49 -56 -66 -57 -21 0 -15 14
22 54 36 40 64 42 44 3z"/>
<path d="M2260 2340 c-19 -10 -48 -33 -65 -52 l-30 -33 31 28 c27 24 54 35 54
22 0 -2 -9 -19 -20 -37 -36 -59 -18 -118 30 -103 23 7 80 89 80 114 0 9 -15
-9 -33 -39 -34 -56 -67 -77 -67 -43 0 10 16 49 35 87 19 39 35 71 35 73 0 7
-17 1 -50 -17z"/>
<path d="M252 2293 c30 -32 77 -82 103 -110 26 -29 72 -66 102 -82 68 -37 64
-17 -5 24 -29 17 -79 63 -116 106 -60 71 -113 119 -132 119 -4 0 17 -26 48
-57z"/>
<path d="M2796 2235 c-38 -58 -97 -107 -185 -151 -30 -16 -49 -30 -43 -32 13
-4 115 47 167 86 25 17 53 53 73 90 18 34 31 62 28 62 -3 0 -21 -25 -40 -55z"/>
<path d="M544 2054 c16 -9 90 -36 165 -61 160 -52 191 -69 327 -171 57 -42
136 -95 176 -117 69 -38 75 -44 112 -115 22 -41 59 -122 83 -180 23 -58 43
-97 43 -87 0 17 2 17 26 -2 16 -13 41 -21 63 -21 54 0 225 57 311 103 213 115
241 127 291 127 51 0 122 -30 199 -82 58 -40 66 -42 40 -14 -38 42 -194 116
-244 116 -42 0 -179 -60 -251 -109 -16 -12 -37 -21 -46 -21 -9 0 -22 -7 -29
-15 -7 -8 -68 -33 -137 -55 -133 -44 -166 -45 -199 -9 -14 15 -20 17 -27 7 -6
-9 -7 -7 -3 6 4 11 3 22 -2 25 -5 3 -30 56 -56 116 -69 164 -84 186 -158 223
-35 18 -115 71 -178 118 -63 47 -132 95 -153 105 -33 17 -363 130 -377 129 -3
-1 8 -8 24 -16z"/>
<path d="M2375 2025 c-157 -30 -266 -72 -320 -122 -11 -10 -57 -40 -103 -68
-45 -27 -104 -67 -130 -88 -26 -22 -70 -50 -98 -62 -39 -17 -65 -40 -108 -93
-30 -39 -64 -73 -75 -77 -18 -5 -78 -72 -95 -105 -9 -16 41 30 174 163 52 52
103 93 130 105 25 11 73 42 108 71 35 28 84 63 110 78 26 14 58 36 72 49 64
57 273 130 432 150 29 4 60 10 68 15 27 15 -39 9 -165 -16z"/>
<path d="M754 1560 c-11 -4 -56 -13 -100 -20 -43 -7 -83 -17 -89 -22 -6 -6 3
-8 25 -4 19 3 58 8 85 11 28 3 66 11 85 17 19 6 60 14 90 18 l55 7 -65 1 c-36
0 -74 -3 -86 -8z"/>
<path d="M885 1543 c-26 -6 -55 -32 -55 -49 0 -7 -12 -19 -27 -26 -22 -10 -28
-21 -30 -48 l-2 -35 10 32 c5 17 18 35 29 38 41 13 87 -36 75 -82 -4 -16 -2
-22 5 -18 5 3 10 21 10 40 0 25 -8 40 -30 58 -45 39 -17 77 57 77 22 0 24 -3
18 -22 -24 -77 -12 -129 36 -153 39 -21 92 -19 120 5 29 23 22 25 -17 5 -43
-22 -70 -18 -106 14 -42 38 -44 94 -3 128 69 60 134 13 247 -177 208 -348 219
-370 252 -485 l25 -89 -24 -46 c-13 -25 -31 -69 -40 -98 -10 -29 -20 -50 -24
-47 -153 153 -206 197 -290 240 -154 77 -344 273 -357 368 -7 45 -6 46 30 64
34 16 40 16 64 2 35 -19 39 -54 13 -90 -24 -32 -14 -40 12 -11 10 10 17 35 17
55 0 64 -53 92 -117 60 -26 -12 -39 -26 -41 -43 -6 -38 16 -97 51 -138 28 -32
29 -35 7 -21 -14 9 -47 30 -75 47 -37 23 -61 49 -92 99 -39 64 -93 127 -93
109 0 -4 9 -20 21 -34 11 -15 38 -55 59 -89 31 -49 51 -69 107 -101 72 -42
148 -104 223 -179 54 -54 102 -88 195 -136 84 -44 262 -210 294 -274 25 -49
28 -125 7 -166 -8 -15 -11 -27 -6 -27 5 0 12 10 15 21 6 17 9 19 17 8 7 -10 8
-7 4 12 -8 35 10 93 40 128 32 39 118 81 165 81 22 0 47 8 63 21 29 23 157 87
226 113 34 13 53 28 73 61 57 90 195 191 272 199 17 2 33 12 40 27 15 29 57
210 51 216 -5 5 -46 -121 -46 -141 0 -6 -5 -28 -11 -48 -12 -47 -38 -52 -31
-7 6 40 -14 76 -48 88 -42 14 -70 -9 -70 -60 0 -21 4 -39 8 -39 5 0 7 12 5 28
-3 15 2 35 9 45 11 15 18 16 41 8 31 -12 45 -40 39 -80 -3 -22 -13 -30 -52
-44 -70 -25 -159 -95 -210 -165 -24 -34 -49 -62 -54 -62 -20 0 -211 -92 -238
-115 -20 -17 -42 -25 -66 -25 -54 0 -133 -41 -175 -90 -21 -25 -37 -37 -37
-28 0 8 -10 35 -23 59 l-24 44 42 96 c23 53 62 127 88 165 77 116 294 376 355
426 31 25 74 64 95 86 65 69 137 91 172 52 25 -28 21 -75 -10 -116 -35 -46
-76 -47 -122 -2 -18 18 -33 27 -33 22 0 -19 55 -64 86 -70 39 -7 85 29 108 86
11 27 22 40 35 40 23 0 51 -25 51 -46 0 -8 5 -14 10 -14 19 0 10 31 -16 56
-17 18 -32 24 -47 20 -17 -4 -26 2 -38 23 -38 67 -119 48 -227 -52 -43 -40
-94 -85 -114 -102 -41 -35 -264 -313 -318 -397 l-37 -56 -16 76 c-17 77 -69
189 -147 317 -46 75 -47 80 -21 65 43 -23 108 0 129 44 15 33 6 33 -19 2 -22
-28 -66 -40 -109 -31 -25 5 -40 24 -96 121 -38 65 -82 127 -102 144 -46 38
-97 48 -132 28 -23 -13 -29 -13 -45 -2 -19 14 -26 15 -60 7z"/>
<path d="M762 1484 c-34 -31 -90 -78 -124 -106 -80 -63 -90 -74 -52 -55 40 20
118 79 167 126 37 35 83 91 74 91 -2 0 -32 -25 -65 -56z"/>
<path d="M2180 1509 c14 -6 36 -20 49 -32 27 -25 126 -172 178 -265 45 -81 54
-74 12 9 -89 178 -193 301 -251 298 -7 0 -2 -5 12 -10z"/>
<path d="M0 1474 c0 -6 7 -17 14 -24 32 -25 137 -202 170 -282 18 -47 44 -125
56 -174 12 -49 30 -102 40 -119 20 -31 153 -155 167 -155 4 0 -30 38 -76 84
l-83 83 -29 112 c-31 123 -94 266 -157 357 -51 74 -101 132 -102 118z"/>
<path d="M2919 1333 c-98 -101 -141 -160 -178 -249 -18 -43 -37 -88 -42 -99
-31 -72 -88 -229 -84 -233 5 -5 27 44 77 168 16 41 38 93 48 115 10 22 25 58
34 80 22 51 83 133 165 218 35 37 60 67 55 67 -5 0 -39 -30 -75 -67z"/>
<path d="M762 1363 c-12 -10 -22 -25 -23 -33 -3 -30 1 -60 9 -60 5 0 7 13 4
28 -8 55 57 83 98 42 11 -11 20 -32 20 -47 0 -20 3 -24 11 -16 18 18 -8 82
-38 94 -36 13 -58 11 -81 -8z"/>
<path d="M2236 1248 c-9 -12 -16 -32 -16 -43 0 -16 4 -14 20 13 31 50 90 40
90 -16 0 -19 -4 -22 -21 -17 -32 11 -64 -2 -77 -30 -15 -32 -15 -45 -2 -45 6
0 10 8 10 18 0 24 19 42 46 42 32 0 48 -25 41 -67 -5 -27 -3 -33 5 -25 10 10
13 42 8 92 -1 8 2 25 5 37 16 51 -77 87 -109 41z"/>
<path d="M520 806 c0 -2 29 -20 64 -40 36 -20 95 -62 133 -92 77 -65 119 -85
241 -121 110 -31 154 -54 222 -112 66 -57 143 -113 188 -135 53 -27 37 -10
-35 37 -38 24 -95 69 -129 99 -86 77 -115 93 -239 128 -131 38 -173 58 -230
111 -56 51 -215 144 -215 125z"/>
<path d="M2479 729 c-49 -26 -137 -90 -252 -182 -26 -21 -62 -33 -148 -51 -63
-13 -150 -40 -194 -59 -81 -36 -295 -110 -363 -126 -36 -9 -37 -9 -6 -10 34
-1 297 82 386 122 52 23 92 34 244 67 35 8 68 25 108 58 80 65 216 163 262
189 59 34 27 27 -37 -8z"/>
<path d="M2448 649 c-106 -63 -134 -82 -249 -175 -57 -46 -90 -65 -130 -74
-30 -7 -81 -27 -114 -46 -33 -18 -78 -36 -99 -40 -22 -4 -60 -20 -85 -35 -25
-16 -50 -29 -56 -29 -13 0 -200 -199 -193 -205 3 -3 15 6 27 19 19 20 28 22
56 16 34 -8 35 -6 95 70 72 94 120 134 179 150 24 6 67 24 95 40 28 16 71 34
96 40 48 12 98 41 142 83 15 14 45 38 65 54 21 15 40 30 43 34 3 3 55 36 115
74 124 77 120 74 114 79 -2 2 -48 -23 -101 -55z m-732 -450 c-26 -29 -54 -65
-63 -80 -13 -21 -25 -29 -46 -29 -28 0 -28 0 30 66 47 54 95 91 121 94 2 0
-17 -23 -42 -51z"/>
<path d="M625 619 c66 -33 136 -72 156 -85 19 -13 105 -51 190 -83 246 -93
247 -94 339 -186 47 -47 88 -85 93 -85 5 0 -29 40 -75 90 -78 83 -90 92 -185
134 -56 25 -148 61 -205 81 -57 20 -120 47 -141 61 -42 27 -234 119 -269 129
-13 3 31 -22 97 -56z"/>
<path d="M1441 231 c-41 -78 -41 -123 0 -162 17 -16 38 -29 47 -29 11 0 3 11
-21 31 -47 38 -48 70 -7 157 37 79 23 81 -19 3z"/>
</g>
</svg>
